<svg width="1400" height="560" viewBox="0 0 1400 560" fill="none" xmlns="http://www.w3.org/2000/svg">
  <defs>
    <linearGradient id="bg" x1="0" y1="0" x2="1400" y2="560" gradientUnits="userSpaceOnUse">
      <stop offset="0" stop-color="#2B2626"/>
      <stop offset="0.45" stop-color="#52463E"/>
      <stop offset="1" stop-color="#2E2727"/>
    </linearGradient>
    <radialGradient id="goldGlow" cx="0" cy="0" r="1" gradientUnits="userSpaceOnUse" gradientTransform="translate(930 270) rotate(180) scale(430 230)">
      <stop stop-color="#FFE9A3"/>
      <stop offset="1" stop-color="#FFE9A3" stop-opacity="0"/>
    </radialGradient>
    <linearGradient id="matFillWide" x1="132" y1="238" x2="646" y2="398" gradientUnits="userSpaceOnUse">
      <stop offset="0" stop-color="#D5001E"/>
      <stop offset="0.55" stop-color="#FF5200"/>
      <stop offset="1" stop-color="#FFC928"/>
    </linearGradient>
    <linearGradient id="bubbleGrad" x1="168" y1="80" x2="540" y2="164" gradientUnits="userSpaceOnUse">
      <stop offset="0" stop-color="#FFFFFF"/>
      <stop offset="1" stop-color="#ECEFF8"/>
    </linearGradient>
    <linearGradient id="bookGrad" x1="928" y1="220" x2="1160" y2="460" gradientUnits="userSpaceOnUse">
      <stop offset="0" stop-color="#FFF5DB"/>
      <stop offset="1" stop-color="#D6C3A3"/>
    </linearGradient>
  </defs>

  <rect width="1400" height="560" rx="36" fill="url(#bg)"/>
  <rect width="1400" height="560" rx="36" fill="url(#goldGlow)"/>

  <g transform="translate(88 34)">
    <path d="M86 180C86 126.98 128.98 84 182 84H500C553.02 84 596 126.98 596 180V352C596 405.02 553.02 448 500 448H176C126.294 448 86 407.706 86 358V180Z" fill="#111216" fill-opacity="0.8"/>
    <path d="M116 124C116 91.9675 141.968 66 174 66H504C536.032 66 562 91.9675 562 124V330C562 362.032 536.032 388 504 388H116V124Z" fill="#0B0D12" fill-opacity="0.92"/>

    <path d="M250 34C267 24 287 24 304 34L410 98C428 109 441 126 446 146L449 160L210 160L212 146C216 126 230 109 248 98L250 34Z" fill="url(#bubbleGrad)" stroke="#15161C" stroke-width="10"/>
    <path d="M330 160L356 188L332 206" stroke="#E11D48" stroke-width="16" stroke-linecap="round" stroke-linejoin="round"/>
    <rect x="226" y="84" width="96" height="56" rx="14" fill="#FFFFFF"/>
    <circle cx="274" cy="112" r="22" fill="#C60B1E"/>
    <path d="M274 90C287 90 296 100 296 112C296 124 287 134 274 134C261 134 252 124 252 112C252 100 261 90 274 90Z" fill="#003478"/>
    <path d="M368 84H460V140H368V84Z" fill="#FFFFFF"/>
    <path d="M368 84H414V112H368V84Z" fill="#1E40AF"/>
    <path d="M414 84H460V94H414V84ZM414 104H460V114H414V104ZM368 124H460V134H368V124Z" fill="#EF233C"/>
    <circle cx="388" cy="96" r="4" fill="#FFFFFF"/>
    <circle cx="400" cy="106" r="4" fill="#FFFFFF"/>
    <circle cx="392" cy="118" r="4" fill="#FFFFFF"/>

    <path d="M116 330L138 160H246L280 300L328 160H506L486 330H392L406 218L350 330H282L236 222L224 330H116Z" fill="url(#matFillWide)" stroke="#FFFFFF" stroke-width="22" stroke-linejoin="round"/>
    <path d="M514 160H642L634 230H590L568 330H462L484 230H506L514 160Z" fill="url(#matFillWide)" stroke="#FFFFFF" stroke-width="22" stroke-linejoin="round"/>

    <rect x="118" y="404" width="566" height="60" rx="24" fill="#111216"/>
    <text x="150" y="445" fill="#FFFFFF" font-family="Arial, Helvetica, sans-serif" font-size="34" font-style="italic" font-weight="800">Manwha Auto Translator</text>
  </g>

  <g transform="translate(880 86)">
    <circle cx="238" cy="172" r="148" fill="#FFE8A6" fill-opacity="0.35"/>
    <circle cx="238" cy="172" r="118" fill="#F0C37C" fill-opacity="0.15"/>

    <path d="M142 126C142 72 186 28 240 28C294 28 338 72 338 126V204C338 256 296 298 244 298H214C158 298 112 252 112 196V156C112 146 116 137 124 131L142 126Z" fill="#B77C54"/>
    <path d="M126 154C126 92 176 42 238 42C300 42 350 92 350 154V186C350 248 300 298 238 298C176 298 126 248 126 186V154Z" fill="#D9A37A"/>
    <path d="M132 166C138 132 156 104 184 84C204 70 228 62 256 62C278 62 300 68 316 80C286 94 254 122 232 150C208 180 190 214 180 250C160 228 146 200 136 168L132 166Z" fill="#9C6747"/>
    <circle cx="210" cy="176" r="18" fill="#342321"/>
    <circle cx="278" cy="176" r="18" fill="#342321"/>
    <circle cx="214" cy="172" r="5" fill="#FFFFFF"/>
    <circle cx="282" cy="172" r="5" fill="#FFFFFF"/>
    <path d="M210 230C226 246 252 246 270 230" stroke="#7E3524" stroke-width="12" stroke-linecap="round"/>
    <path d="M184 212C194 226 210 232 226 232" stroke="#E68A83" stroke-width="10" stroke-linecap="round" opacity="0.8"/>
    <path d="M270 232C286 232 302 226 312 212" stroke="#E68A83" stroke-width="10" stroke-linecap="round" opacity="0.8"/>
    <path d="M154 102C170 62 214 36 254 36C310 36 356 82 356 138V142C338 110 308 86 264 76C230 68 190 74 154 102Z" fill="#8B5E43"/>

    <circle cx="126" cy="182" r="42" fill="#2B2C31" stroke="#111216" stroke-width="10"/>
    <circle cx="354" cy="182" r="42" fill="#2B2C31" stroke="#111216" stroke-width="10"/>
    <path d="M126 150C136 150 145 158 147 168L150 182H102L105 168C107 158 116 150 126 150Z" fill="#F2F5FC"/>
    <circle cx="126" cy="182" r="17" fill="#C60B1E"/>
    <path d="M126 165C136 165 143 173 143 182C143 191 136 199 126 199C116 199 109 191 109 182C109 173 116 165 126 165Z" fill="#003478"/>
    <path d="M354 150H385V214H323V150H354Z" fill="#FFFFFF"/>
    <path d="M323 150H354V182H323V150Z" fill="#1E40AF"/>
    <path d="M354 150H385V160H354V150ZM354 170H385V180H354V170ZM323 190H385V200H323V190Z" fill="#EF233C"/>

    <path d="M140 336C178 300 212 286 248 286C282 286 316 298 352 324L334 442C324 470 300 490 272 490H196C166 490 140 468 132 438L140 336Z" fill="#2E2A2A"/>
    <path d="M164 330C192 308 220 298 250 298C274 298 300 306 330 324L318 440C312 458 296 470 278 470H198C178 470 160 456 156 438L164 330Z" fill="#F0DCC8"/>
    <path d="M156 340L208 382L188 472H154C130 472 110 454 106 430L118 350L156 340Z" fill="#D45D2F"/>

    <path d="M212 318C224 310 238 306 252 306C284 306 312 326 322 356L330 382L212 388L188 344L212 318Z" fill="#FFFFFF"/>
    <path d="M212 318L188 344L204 386L248 338L212 318Z" fill="#1F2937"/>

    <path d="M264 352L346 324L380 392L298 422L264 352Z" fill="#0E1015" stroke="#FFFFFF" stroke-width="10" stroke-linejoin="round"/>
    <path d="M274 360L334 340L360 390L300 408L274 360Z" fill="url(#bookGrad)"/>
    <path d="M284 370H327" stroke="#9A7A4B" stroke-width="8" stroke-linecap="round"/>
    <path d="M286 388H342" stroke="#9A7A4B" stroke-width="8" stroke-linecap="round"/>
    <path d="M302 350L316 398" stroke="#FFFFFF" stroke-width="6" opacity="0.8"/>

    <path d="M106 368L176 334L194 370L124 404L106 368Z" fill="#111216"/>
  </g>

  <g transform="translate(646 300)">
    <rect x="0" y="0" width="138" height="96" rx="24" fill="#FFFFFF" stroke="#12141A" stroke-width="10"/>
    <path d="M88 96L52 132L54 96H88Z" fill="#FFFFFF" stroke="#12141A" stroke-width="10" stroke-linejoin="round"/>
    <text x="28" y="64" fill="#12141A" font-family="Arial, Helvetica, sans-serif" font-size="62" font-weight="900">A</text>
    <path d="M92 22H130V86H92V22Z" fill="#D9002E" rx="10"/>
    <text x="98" y="72" fill="#FFFFFF" font-family="Arial, Helvetica, sans-serif" font-size="42" font-weight="900">F</text>
  </g>
</svg>
